<?xml version="1.0" encoding="UTF-8" standalone="no"?>
<svg
   viewBox="0 0 4857969 436310.94"
   class="spotify-logo--text"
   version="1.1"
   id="svg1"
   sodipodi:docname="contatti.svg"
   xml:space="preserve"
   inkscape:version="1.3 (0e150ed6c4, 2023-07-21)"
   width="4857969"
   height="436310.94"
   xmlns:inkscape="http://www.inkscape.org/namespaces/inkscape"
   xmlns:sodipodi="http://sodipodi.sourceforge.net/DTD/sodipodi-0.dtd"
   xmlns="http://www.w3.org/2000/svg"
   xmlns:svg="http://www.w3.org/2000/svg"><defs
     id="defs1" /><sodipodi:namedview
     id="namedview1"
     pagecolor="#ffffff"
     bordercolor="#000000"
     borderopacity="0.25"
     inkscape:showpageshadow="2"
     inkscape:pageopacity="0.0"
     inkscape:pagecheckerboard="0"
     inkscape:deskcolor="#d1d1d1"
     inkscape:zoom="0.34266667"
     inkscape:cx="321.01167"
     inkscape:cy="214.49416"
     inkscape:window-width="1920"
     inkscape:window-height="1009"
     inkscape:window-x="-8"
     inkscape:window-y="-8"
     inkscape:window-maximized="1"
     inkscape:current-layer="svg1" /><title
     id="title1">Spotify</title><path
     fill="#ffffff"
     d="m -2861660.2,256231.77 c 0,92 76,168 168,168 92,0 168,-76 168,-168 0,-92 -76,-167 -168,-167 -92,0 -168,75 -168,167 z m 230,78 c -39,-24 -89,-30 -147,-17 -14,2 -16,-18 -4,-20 64,-15 118,-8 162,19 11,7 0,24 -11,18 z m 17,-45 c -45,-28 -114,-36 -167,-20 -17,5 -23,-21 -7,-25 61,-18 136,-9 188,23 14,9 0,31 -14,22 z m -175,-71 c -17,6 -28,-23 -9,-30 59,-18 159,-15 221,22 17,9 1,37 -17,27 -54,-32 -144,-35 -195,-19 z m 379,91 c -17,0 -33,-6 -47,-20 -1,0 -1,1 -1,1 l -16,19 c -1,1 -1,2 0,3 18,16 40,24 64,24 34,0 55,-19 55,-47 0,-24 -15,-37 -50,-46 -29,-7 -34,-12 -34,-22 0,-10 10,-16 23,-16 13,0 25,5 39,15 0,0 1,1 2,1 1,0 1,-1 1,-1 l 14,-20 c 1,-1 1,-1 0,-2 -16,-13 -35,-20 -56,-20 -31,0 -53,19 -53,46 0,29 20,38 52,46 28,6 32,12 32,22 0,11 -10,17 -25,17 z m 95,-77 v -13 c 0,-1 -1,-2 -2,-2 h -26 c -1,0 -2,1 -2,2 v 147 c 0,1 1,2 2,2 h 26 c 1,0 2,-1 2,-2 v -46 c 10,11 21,16 36,16 27,0 54,-21 54,-61 0,-40 -27,-60 -54,-60 -15,0 -26,5 -36,17 z m 30,78 c -18,0 -31,-15 -31,-35 0,-20 13,-34 31,-34 18,0 30,14 30,34 0,20 -12,35 -30,35 z m 68,-34 c 0,34 27,60 62,60 35,0 62,-27 62,-61 0,-34 -26,-60 -61,-60 -35,0 -63,27 -63,61 z m 30,-1 c 0,-20 13,-34 32,-34 19,0 33,15 33,35 0,20 -13,34 -32,34 -19,0 -33,-15 -33,-35 z m 140,-58 v -29 c 0,-1 0,-2 -1,-2 h -26 c -1,0 -2,1 -2,2 v 29 h -13 c -1,0 -2,1 -2,2 v 22 c 0,1 1,2 2,2 h 13 v 58 c 0,23 11,35 34,35 9,0 18,-2 25,-6 1,0 1,-1 1,-2 v -21 c 0,-1 0,-2 -1,-2 h -2 c -5,3 -11,4 -16,4 -8,0 -12,-4 -12,-12 v -54 h 30 c 1,0 2,-1 2,-2 v -22 c 0,-1 -1,-2 -2,-2 z m 129,-3 c 0,-11 4,-15 13,-15 5,0 10,0 15,2 h 1 c 0,0 1,-1 1,-2 v -21 c 0,-1 0,-2 -1,-2 -5,-2 -12,-3 -22,-3 -24,0 -36,14 -36,39 v 5 h -13 c -1,0 -2,1 -2,2 v 22 c 0,1 1,2 2,2 h 13 v 89 c 0,1 1,2 2,2 h 26 c 1,0 1,-1 1,-2 v -89 h 25 l 37,89 c -4,9 -8,11 -14,11 -5,0 -10,-1 -15,-4 h -1 l -1,1 -9,19 c 0,1 0,3 1,3 9,5 17,7 27,7 19,0 30,-9 39,-33 l 45,-116 v -2 c 0,-1 -1,-1 -2,-1 h -27 c -1,0 -1,1 -1,2 l -28,78 -30,-78 c 0,-1 -1,-2 -2,-2 h -44 z m -83,3 c -1,0 -2,1 -2,2 v 113 c 0,1 1,2 2,2 h 26 c 1,0 1,-1 1,-2 v -113 c 0,-1 0,-2 -1,-2 z m -6,-33 c 0,10 9,19 19,19 10,0 18,-9 18,-19 0,-10 -8,-18 -18,-18 -10,0 -19,8 -19,18 z m 245,69 c 10,0 19,-8 19,-18 0,-10 -9,-18 -19,-18 -10,0 -18,8 -18,18 0,10 8,18 18,18 z m 0,-34 c 9,0 17,7 17,16 0,9 -8,16 -17,16 -9,0 -16,-7 -16,-16 0,-9 7,-16 16,-16 z m 4,18 c 3,-1 5,-3 5,-6 0,-4 -4,-6 -8,-6 h -8 v 19 h 4 v -6 h 4 l 4,6 h 5 z m -3,-9 c 2,0 4,1 4,3 0,2 -2,3 -4,3 h -4 v -6 z"
     id="path1" /><path
     d="m -2860965,256590.91 q -27.2,0 -47.3,-20.05 -20,-20.05 -20,-47.32 v -168.43 q 0,-144.36 89.8,-255.05 89.8,-110.68 231,-141.16 -64.2,44.92 -99.5,113.09 -35.2,68.18 -35.2,146.78 v 304.77 q 0,17.65 4.8,35.29 4.8,17.65 16,32.08 z m 235.8,0 q -27.2,0 -47.3,-20.05 -20,-20.05 -20,-47.32 v -304.77 q 0,-112.29 79.4,-190.89 79.4,-78.6 191.7,-78.6 h 303.1 q 112.3,0 190.9,78.6 78.6,78.6 78.6,190.89 v 102.66 q 0,112.28 -78.6,190.88 -78.6,78.6 -190.9,78.6 z m 237.5,-776.37 q -105.9,0 -179.7,-73.79 -73.8,-73.79 -73.8,-179.66 0,-105.87 73.8,-179.66 73.8,-73.78 179.7,-73.78 105.8,0 179.6,73.78 73.8,73.79 73.8,179.66 0,105.87 -73.8,179.66 -73.8,73.79 -179.6,73.79 z"
     id="path1-9"
     style="fill:#44484f;fill-opacity:1;stroke-width:1.60408" /></svg>
