<?xml version="1.0" encoding="UTF-8" standalone="no"?>
<!-- Created with Inkscape (http://www.inkscape.org/) -->

<svg
   width="145.2827mm"
   height="36.650089mm"
   viewBox="0 0 145.2827 36.650089"
   version="1.1"
   id="svg1"
   xml:space="preserve"
   inkscape:version="1.3 (0e150ed6c4, 2023-07-21)"
   sodipodi:docname="GitHub_viola.svg"
   xmlns:inkscape="http://www.inkscape.org/namespaces/inkscape"
   xmlns:sodipodi="http://sodipodi.sourceforge.net/DTD/sodipodi-0.dtd"
   xmlns="http://www.w3.org/2000/svg"
   xmlns:svg="http://www.w3.org/2000/svg"><sodipodi:namedview
     id="namedview1"
     pagecolor="#ffffff"
     bordercolor="#000000"
     borderopacity="0.25"
     inkscape:showpageshadow="2"
     inkscape:pageopacity="0.0"
     inkscape:pagecheckerboard="0"
     inkscape:deskcolor="#d1d1d1"
     inkscape:document-units="mm"
     inkscape:zoom="0.25606581"
     inkscape:cx="222.59903"
     inkscape:cy="1122.7583"
     inkscape:window-width="1920"
     inkscape:window-height="1009"
     inkscape:window-x="-8"
     inkscape:window-y="-8"
     inkscape:window-maximized="1"
     inkscape:current-layer="layer1" /><defs
     id="defs1"><clipPath
       id="clip0_4_67"><rect
         width="549.09998"
         height="138.52"
         fill="#ffffff"
         id="rect8"
         x="0"
         y="0" /></clipPath></defs><g
     inkscape:label="Livello 1"
     inkscape:groupmode="layer"
     id="layer1"
     transform="translate(-32.358651,-138.21431)"><g
       style="fill:#695aa6;fill-opacity:1"
       id="g17"
       transform="matrix(0.26458333,0,0,0.26458333,32.35865,138.21431)"><g
         clip-path="url(#clip0_4_67)"
         id="g16"
         style="fill:#695aa6;fill-opacity:1"><path
           fill-rule="evenodd"
           clip-rule="evenodd"
           d="M 70.49,0 C 31.51,0 0,31.74 0,71.02 c 0,31.39 20.19,57.96 48.2,67.37 3.5,0.71 4.78,-1.53 4.78,-3.41 0,-1.65 -0.12,-7.29 -0.12,-13.17 -19.61,4.23 -23.69,-8.47 -23.69,-8.47 -3.15,-8.23 -7.82,-10.35 -7.82,-10.35 -6.42,-4.35 0.47,-4.35 0.47,-4.35 7.12,0.47 10.85,7.29 10.85,7.29 6.3,10.82 16.45,7.76 20.54,5.88 0.58,-4.59 2.45,-7.76 4.44,-9.52 -15.64,-1.65 -32.09,-7.76 -32.09,-35.04 0,-7.76 2.8,-14.11 7.23,-19.05 -0.7,-1.76 -3.15,-9.05 0.7,-18.81 0,0 5.95,-1.88 19.37,7.29 5.75,-1.55 11.67,-2.35 17.62,-2.35 5.95,0 12.02,0.82 17.62,2.35 13.42,-9.17 19.37,-7.29 19.37,-7.29 3.85,9.76 1.4,17.05 0.7,18.81 4.55,4.94 7.24,11.29 7.24,19.05 0,27.28 -16.45,33.27 -32.21,35.04 2.57,2.23 4.78,6.47 4.78,13.17 0,9.52 -0.12,17.17 -0.12,19.52 0,1.88 1.28,4.12 4.78,3.41 28.01,-9.41 48.2,-35.98 48.2,-67.37 C 140.98,31.74 109.36,0 70.49,0 Z"
           fill="#24292f"
           id="path9"
           style="fill:#695aa6;fill-opacity:1" /><path
           d="m 258.29,66.66 h -30.27 c -0.78,0 -1.41,0.63 -1.41,1.41 v 14.8 c 0,0.78 0.63,1.42 1.41,1.42 h 11.81 v 18.39 c 0,0 -2.65,0.9 -9.98,0.9 -8.65,0 -20.73,-3.16 -20.73,-29.72 0,-26.56 12.58,-30.06 24.39,-30.06 10.22,0 14.63,1.8 17.43,2.67 0.88,0.27 1.69,-0.61 1.69,-1.39 l 3.38,-14.3 c 0,-0.37 -0.12,-0.81 -0.54,-1.1 -1.14,-0.81 -8.08,-4.7 -25.62,-4.7 -20.21,0 -40.93,8.6 -40.93,49.92 0,41.32 23.73,47.48 43.73,47.48 16.56,0 26.6,-7.08 26.6,-7.08 0.41,-0.23 0.46,-0.81 0.46,-1.07 V 68.08 c 0,-0.78 -0.63,-1.41 -1.41,-1.41 z"
           fill="#24292f"
           id="path10"
           style="fill:#695aa6;fill-opacity:1" /><path
           d="m 414.27,29.92 c 0,-0.79 -0.62,-1.42 -1.4,-1.42 h -17.04 c -0.78,0 -1.41,0.64 -1.41,1.42 V 62.85 H 367.86 V 29.92 c 0,-0.79 -0.63,-1.42 -1.41,-1.42 h -17.04 c -0.78,0 -1.41,0.64 -1.41,1.42 v 89.17 c 0,0.79 0.63,1.43 1.41,1.43 h 17.04 c 0.78,0 1.41,-0.64 1.41,-1.43 V 80.95 h 26.56 l -0.05,38.14 c 0,0.79 0.63,1.43 1.41,1.43 h 17.08 c 0.78,0 1.4,-0.64 1.41,-1.43 z"
           fill="#24292f"
           id="path11"
           style="fill:#695aa6;fill-opacity:1" /><path
           d="m 290.45,41.62 c 0,-6.14 -4.92,-11.1 -10.99,-11.1 -6.07,0 -10.99,4.96 -10.99,11.1 0,6.14 4.92,11.1 10.99,11.1 6.07,0 10.99,-4.97 10.99,-11.1 z"
           fill="#24292f"
           id="path12"
           style="fill:#695aa6;fill-opacity:1" /><path
           d="M 289.23,100.28 V 59.12 c 0,-0.78 -0.63,-1.42 -1.41,-1.42 h -16.99 c -0.78,0 -1.48,0.8 -1.48,1.59 v 58.98 c 0,1.73 1.08,2.25 2.48,2.25 h 15.31 c 1.68,0 2.09,-0.82 2.09,-2.28 v -17.95 z"
           fill="#24292f"
           id="path13"
           style="fill:#695aa6;fill-opacity:1" /><path
           d="m 479.04,57.83 h -16.91 c -0.78,0 -1.41,0.64 -1.41,1.43 v 43.73 c 0,0 -4.3,3.14 -10.39,3.14 -6.09,0 -7.72,-2.77 -7.72,-8.74 V 59.26 c 0,-0.79 -0.63,-1.43 -1.41,-1.43 h -17.16 c -0.77,0 -1.41,0.64 -1.41,1.43 v 41.02 c 0,17.73 9.88,22.07 23.48,22.07 11.15,0 20.15,-6.16 20.15,-6.16 0,0 0.43,3.25 0.62,3.63 0.19,0.38 0.7,0.77 1.24,0.77 l 10.92,-0.05 c 0.77,0 1.41,-0.64 1.41,-1.42 V 59.26 c 0,-0.79 -0.64,-1.43 -1.42,-1.43 z"
           fill="#24292f"
           id="path14"
           style="fill:#695aa6;fill-opacity:1" /><path
           d="m 525.26,55.83 c -9.61,0 -16.14,4.29 -16.14,4.29 v -30.2 c 0,-0.79 -0.63,-1.42 -1.41,-1.42 h -17.09 c -0.78,0 -1.41,0.64 -1.41,1.42 v 89.17 c 0,0.79 0.63,1.43 1.41,1.43 h 11.86 c 0.53,0 0.94,-0.28 1.24,-0.76 0.29,-0.48 0.72,-4.11 0.72,-4.11 0,0 6.99,6.62 20.22,6.62 15.53,0 24.44,-7.88 24.44,-35.37 0,-27.49 -14.23,-31.08 -23.84,-31.08 z m -6.67,50.24 c -5.87,-0.18 -9.84,-2.84 -9.84,-2.84 V 74.99 c 0,0 3.92,-2.41 8.74,-2.84 6.09,-0.55 11.96,1.29 11.96,15.82 0,15.32 -2.65,18.34 -10.85,18.1 z"
           fill="#24292f"
           id="path15"
           style="fill:#695aa6;fill-opacity:1" /><path
           d="m 338.21,57.69 h -12.78 c 0,0 -0.02,-16.88 -0.02,-16.89 0,-0.64 -0.33,-0.96 -1.07,-0.96 h -17.42 c -0.68,0 -1.04,0.3 -1.04,0.95 v 17.45 c 0,0 -8.73,2.11 -9.32,2.28 -0.59,0.17 -1.02,0.71 -1.02,1.36 v 10.97 c 0,0.79 0.63,1.42 1.41,1.42 h 8.93 v 26.38 c 0,19.6 13.75,21.52 23.02,21.52 4.24,0 9.31,-1.36 10.15,-1.67 0.51,-0.19 0.8,-0.71 0.8,-1.28 v -12.06 c 0.01,-0.79 -0.65,-1.42 -1.4,-1.42 -0.75,0 -2.65,0.3 -4.61,0.3 -6.28,0 -8.41,-2.92 -8.41,-6.7 0,-3.78 0,-25.07 0,-25.07 h 12.78 c 0.78,0 1.41,-0.64 1.41,-1.42 V 59.11 c 0,-0.79 -0.63,-1.42 -1.41,-1.42 z"
           fill="#24292f"
           id="path16"
           style="fill:#695aa6;fill-opacity:1" /></g></g></g></svg>
