<?xml version="1.0" encoding="UTF-8" standalone="no"?>
<svg
   viewBox="0 0 4500000 340000"
   class="spotify-logo--text"
   version="1.1"
   id="svg1"
   sodipodi:docname="logo.svg"
   xml:space="preserve"
   width="4500000"
   height="340000"
   xmlns:inkscape="http://www.inkscape.org/namespaces/inkscape"
   xmlns:sodipodi="http://sodipodi.sourceforge.net/DTD/sodipodi-0.dtd"
   xmlns="http://www.w3.org/2000/svg"
   xmlns:svg="http://www.w3.org/2000/svg"><defs
     id="defs1" /><sodipodi:namedview
     id="namedview1"
     pagecolor="#ffffff"
     bordercolor="#000000"
     borderopacity="0.25"
     inkscape:showpageshadow="2"
     inkscape:pageopacity="0.0"
     inkscape:pagecheckerboard="0"
     inkscape:deskcolor="#d1d1d1" /><title
     id="title1">Spotify</title><path
     fill="#ffffff"
     d="m -2284332,1703014 c 0,92 76,168 168,168 92,0 168,-76 168,-168 0,-92 -76,-167 -168,-167 -92,0 -168,75 -168,167 z m 230,78 c -39,-24 -89,-30 -147,-17 -14,2 -16,-18 -4,-20 64,-15 118,-8 162,19 11,7 0,24 -11,18 z m 17,-45 c -45,-28 -114,-36 -167,-20 -17,5 -23,-21 -7,-25 61,-18 136,-9 188,23 14,9 0,31 -14,22 z m -175,-71 c -17,6 -28,-23 -9,-30 59,-18 159,-15 221,22 17,9 1,37 -17,27 -54,-32 -144,-35 -195,-19 z m 379,91 c -17,0 -33,-6 -47,-20 -1,0 -1,1 -1,1 l -16,19 c -1,1 -1,2 0,3 18,16 40,24 64,24 34,0 55,-19 55,-47 0,-24 -15,-37 -50,-46 -29,-7 -34,-12 -34,-22 0,-10 10,-16 23,-16 13,0 25,5 39,15 0,0 1,1 2,1 1,0 1,-1 1,-1 l 14,-20 c 1,-1 1,-1 0,-2 -16,-13 -35,-20 -56,-20 -31,0 -53,19 -53,46 0,29 20,38 52,46 28,6 32,12 32,22 0,11 -10,17 -25,17 z m 95,-77 v -13 c 0,-1 -1,-2 -2,-2 h -26 c -1,0 -2,1 -2,2 v 147 c 0,1 1,2 2,2 h 26 c 1,0 2,-1 2,-2 v -46 c 10,11 21,16 36,16 27,0 54,-21 54,-61 0,-40 -27,-60 -54,-60 -15,0 -26,5 -36,17 z m 30,78 c -18,0 -31,-15 -31,-35 0,-20 13,-34 31,-34 18,0 30,14 30,34 0,20 -12,35 -30,35 z m 68,-34 c 0,34 27,60 62,60 35,0 62,-27 62,-61 0,-34 -26,-60 -61,-60 -35,0 -63,27 -63,61 z m 30,-1 c 0,-20 13,-34 32,-34 19,0 33,15 33,35 0,20 -13,34 -32,34 -19,0 -33,-15 -33,-35 z m 140,-58 v -29 c 0,-1 0,-2 -1,-2 h -26 c -1,0 -2,1 -2,2 v 29 h -13 c -1,0 -2,1 -2,2 v 22 c 0,1 1,2 2,2 h 13 v 58 c 0,23 11,35 34,35 9,0 18,-2 25,-6 1,0 1,-1 1,-2 v -21 c 0,-1 0,-2 -1,-2 h -2 c -5,3 -11,4 -16,4 -8,0 -12,-4 -12,-12 v -54 h 30 c 1,0 2,-1 2,-2 v -22 c 0,-1 -1,-2 -2,-2 z m 129,-3 c 0,-11 4,-15 13,-15 5,0 10,0 15,2 h 1 c 0,0 1,-1 1,-2 v -21 c 0,-1 0,-2 -1,-2 -5,-2 -12,-3 -22,-3 -24,0 -36,14 -36,39 v 5 h -13 c -1,0 -2,1 -2,2 v 22 c 0,1 1,2 2,2 h 13 v 89 c 0,1 1,2 2,2 h 26 c 1,0 1,-1 1,-2 v -89 h 25 l 37,89 c -4,9 -8,11 -14,11 -5,0 -10,-1 -15,-4 h -1 l -1,1 -9,19 c 0,1 0,3 1,3 9,5 17,7 27,7 19,0 30,-9 39,-33 l 45,-116 v -2 c 0,-1 -1,-1 -2,-1 h -27 c -1,0 -1,1 -1,2 l -28,78 -30,-78 c 0,-1 -1,-2 -2,-2 h -44 z m -83,3 c -1,0 -2,1 -2,2 v 113 c 0,1 1,2 2,2 h 26 c 1,0 1,-1 1,-2 v -113 c 0,-1 0,-2 -1,-2 z m -6,-33 c 0,10 9,19 19,19 10,0 18,-9 18,-19 0,-10 -8,-18 -18,-18 -10,0 -19,8 -19,18 z m 245,69 c 10,0 19,-8 19,-18 0,-10 -9,-18 -19,-18 -10,0 -18,8 -18,18 0,10 8,18 18,18 z m 0,-34 c 9,0 17,7 17,16 0,9 -8,16 -17,16 -9,0 -16,-7 -16,-16 0,-9 7,-16 16,-16 z m 4,18 c 3,-1 5,-3 5,-6 0,-4 -4,-6 -8,-6 h -8 v 19 h 4 v -6 h 4 l 4,6 h 5 z m -3,-9 c 2,0 4,1 4,3 0,2 -2,3 -4,3 h -4 v -6 z"
     id="path1" /><g
     id="g1"
     inkscape:export-filename="..\..\..\PersonalSiteWeb\public_html\assets\imgs\spotify-logo.svg"
     inkscape:export-xdpi="96"
     inkscape:export-ydpi="96"
     transform="translate(-2284327.6,1702721.3)"><rect
       style="fill:#ffffff;fill-rule:evenodd;stroke:#ffe100;stroke-width:0"
       id="rect1"
       width="1000"
       height="1000"
       x="495.24988"
       y="-4886.6128" /><path
       fill="#1ed760"
       d="m 688.43468,-4518.0555 c -72.59354,0 -131.44502,58.85 -131.44502,131.4435 0,72.5967 58.85148,131.4419 131.44502,131.4419 72.60138,0 131.44659,-58.8452 131.44659,-131.4419 0,-72.5889 -58.84521,-131.4371 -131.44817,-131.4371 z m 60.27984,189.5792 c -2.35444,3.8613 -7.40863,5.0856 -11.2699,2.7155 -30.86196,-18.8512 -69.71328,-23.1205 -115.46782,-12.6669 -4.40908,1.0046 -8.80402,-1.758 -9.80858,-6.1686 -1.00927,-4.4106 1.74228,-8.8056 6.16234,-9.8102 50.071,-11.4394 93.02062,-6.5139 127.6685,14.6604 3.86128,2.37 5.08558,7.4086 2.71546,11.2698 z m 16.08864,-35.7906 c -2.96659,4.822 -9.27648,6.3445 -14.09522,3.3779 -35.33224,-21.7173 -89.19074,-28.0068 -130.98198,-15.3211 -5.41992,1.6372 -11.14434,-1.4174 -12.7893,-6.8278 -1.6324,-5.42 1.42365,-11.1334 6.83414,-12.7815 47.73698,-14.4845 107.08288,-7.4683 147.65767,17.4652 4.81875,2.9666 6.34128,9.2765 3.37469,14.0889 z m 1.38127,-37.269 c -42.36415,-25.1628 -112.25951,-27.4764 -152.70715,-15.2003 -6.4951,1.9699 -13.36378,-1.6968 -15.33208,-8.1919 -1.96831,-6.4982 1.69519,-13.3622 8.195,-15.3368 46.43106,-14.0952 123.6173,-11.3719 172.3918,17.583 5.8547,3.4672 7.76964,11.0124 4.30077,16.8468 -3.45317,5.842 -11.01876,7.768 -16.84207,4.2992 z m 148.42366,4.8218 c -22.69678,-5.412 -26.73072,-9.2106 -26.73072,-17.1921 0,-7.5405 7.0947,-12.6151 17.65831,-12.6151 10.23386,0 20.37365,3.8534 31.01579,11.7864 0.31385,0.2401 0.72201,0.3358 1.11442,0.273 0.40803,-0.06 0.7534,-0.2778 0.98882,-0.6058 l 11.08158,-15.6209 c 0.4552,-0.6435 0.32961,-1.5304 -0.28258,-2.0217 -12.66682,-10.1602 -26.91902,-15.0998 -43.58842,-15.0998 -24.50186,0 -41.62645,14.7058 -41.62645,35.7466 0,22.5634 14.77016,30.5528 40.29226,36.7198 21.70784,5.0024 25.38081,9.1934 25.38081,16.6836 0,8.3032 -7.40861,13.4674 -19.33779,13.4674 -13.24761,0 -24.06231,-4.4735 -36.14842,-14.9272 -0.29823,-0.2668 -0.70633,-0.3767 -1.08304,-0.361 -0.40811,0.032 -0.76912,0.2198 -1.02026,0.518 l -12.43142,14.7858 c -0.51797,0.6279 -0.45519,1.5382 0.14127,2.072 14.06383,12.557 31.36108,19.1808 50.03964,19.1808 26.40103,0 43.46283,-14.4249 43.46283,-36.7606 0.0476,-18.8466 -11.23844,-29.2846 -38.87959,-36.0088 z m 98.66661,-22.3828 c -11.4426,0 -20.82898,4.508 -28.58296,13.7452 v -10.3972 c 0,-0.821 -0.65922,-1.4896 -1.47542,-1.4896 h -20.32661 c -0.8162,0 -1.47542,0.6686 -1.47542,1.4896 v 115.5258 c 0,0.8162 0.65922,1.4912 1.47542,1.4912 h 20.32661 c 0.8162,0 1.47542,-0.675 1.47542,-1.4912 v -36.4623 c 7.75398,8.6801 17.14036,12.9337 28.58296,12.9337 21.2684,0 42.8036,-16.3712 42.8036,-47.6679 0.032,-31.303 -21.5038,-47.6789 -42.788,-47.6789 z m 19.165,47.6773 c 0,15.9301 -9.81,27.0587 -23.8738,27.0587 -13.89136,0 -24.37639,-11.6308 -24.37639,-27.0587 0,-15.4294 10.48503,-27.0572 24.37639,-27.0572 13.8282,0 23.8738,11.3751 23.8738,27.0557 z m 78.8108,-47.6773 c -27.3898,0 -48.8466,21.0894 -48.8466,48.0179 0,26.6397 21.3154,47.4999 48.517,47.4999 27.4842,0 49.0038,-21.0172 49.0038,-47.8405 0,-26.7323 -21.3784,-47.6742 -48.6742,-47.6742 z m 0,74.893 c -14.566,0 -25.5534,-11.7094 -25.5534,-27.2236 0,-15.5848 10.6106,-26.8939 25.2238,-26.8939 14.6604,0 25.7106,11.7047 25.7106,27.2345 0,15.5817 -10.6736,26.883 -25.381,26.883 z m 107.1584,-73.0346 h -22.3672 v -22.8632 c 0,-0.8193 -0.6592,-1.488 -1.4754,-1.488 h -20.3266 c -0.8162,0 -1.4912,0.6687 -1.4912,1.488 v 22.8632 h -9.763 c -0.8164,0 -1.4756,0.6686 -1.4756,1.4896 v 17.4652 c 0,0.8194 0.6592,1.4896 1.4756,1.4896 h 9.763 v 45.1972 c 0,18.2548 9.088,27.5156 27.0288,27.5156 7.2832,0 13.3262,-1.5068 19.024,-4.7402 0.4708,-0.2512 0.7534,-0.7535 0.7534,-1.2872 v -16.638 c 0,-0.5022 -0.2668,-0.9888 -0.7064,-1.2557 -0.4394,-0.2825 -0.9888,-0.2982 -1.444,-0.062 -3.9084,1.9621 -7.6912,2.8724 -11.9292,2.8724 -6.514,0 -9.4334,-2.9665 -9.4334,-9.5904 v -42.0031 h 22.3672 c 0.8162,0 1.4754,-0.6687 1.4754,-1.4896 v -17.4636 c 0.032,-0.821 -0.6278,-1.4896 -1.4598,-1.4896 z m 77.916,0.089 v -2.8081 c 0,-8.2608 3.1706,-11.9448 10.2654,-11.9448 4.238,0 7.644,0.8414 11.4582,2.1128 0.471,0.1474 0.9576,0.073 1.3342,-0.2072 0.3924,-0.281 0.6122,-0.7315 0.6122,-1.2086 v -17.1246 c 0,-0.6546 -0.4082,-1.2338 -1.0516,-1.4268 -4.0184,-1.1976 -9.1666,-2.4267 -16.8892,-2.4267 -18.757,0 -28.6928,10.5699 -28.6928,30.5559 v 4.3008 h -9.763 c -0.8162,0 -1.4912,0.6686 -1.4912,1.488 v 17.5546 c 0,0.8194 0.675,1.4896 1.4912,1.4896 h 9.763 v 69.6992 c 0,0.8318 0.675,1.4911 1.4912,1.4911 h 20.311 c 0.8318,0 1.491,-0.6593 1.491,-1.4911 v -69.6945 h 18.9768 l 29.0694,69.6945 c -3.2962,7.3144 -6.5452,8.7742 -10.9716,8.7742 -3.5788,0 -7.3616,-1.0674 -11.2072,-3.1864 -0.361,-0.1884 -0.8004,-0.2198 -1.1772,-0.1099 -0.3924,0.1412 -0.722,0.4238 -0.879,0.8004 l -6.8906,15.1154 c -0.3296,0.7222 -0.048,1.554 0.6436,1.9308 7.1888,3.8926 13.6714,5.5564 21.6922,5.5564 15.0056,0 23.3088,-7.0006 30.6076,-25.8046 l 35.2538,-91.0962 c 0.1884,-0.4584 0.1256,-0.9764 -0.157,-1.383 -0.2668,-0.4034 -0.722,-0.6466 -1.2086,-0.6466 h -21.1586 c -0.6434,0 -1.2086,0.4034 -1.4126,0.9982 l -21.6764,61.8966 -23.7328,-61.9374 c -0.2198,-0.576 -0.7692,-0.9574 -1.3812,-0.9574 h -34.7202 z m -45.1738,-0.089 h -20.3266 c -0.8162,0 -1.491,0.6686 -1.491,1.4896 v 88.6539 c 0,0.8319 0.6748,1.4911 1.491,1.4911 h 20.3266 c 0.8162,0 1.4912,-0.6592 1.4912,-1.4911 v -88.6477 c 0,-0.8208 -0.6592,-1.4895 -1.4912,-1.4895 z m -10.0456,-40.3692 c -8.052,0 -14.5818,6.5171 -14.5818,14.5678 0,8.0552 6.5298,14.5802 14.5818,14.5802 8.0522,0 14.5662,-6.525 14.5662,-14.5802 0,-8.0491 -6.5296,-14.5678 -14.5662,-14.5678 z m 178.0268,68.8752 c -8.0364,0 -14.2992,-6.459 -14.2992,-14.3024 0,-7.8435 6.3412,-14.3762 14.3778,-14.3762 8.0364,0 14.2992,6.4574 14.2992,14.2945 0,7.8435 -6.3412,14.3841 -14.3778,14.3841 z m 0.078,-27.2566 c -7.3302,0 -12.871,5.8234 -12.871,12.9542 0,7.1276 5.5094,12.8724 12.7925,12.8724 7.3301,0 12.8709,-5.8186 12.8709,-12.9541 0,-7.1277 -5.5094,-12.8725 -12.7924,-12.8725 z m 3.1706,14.3432 4.0496,5.6632 h -3.4218 l -3.6415,-5.1954 h -3.1235 v 5.1954 h -2.8568 v -15.0118 h 6.6866 c 3.5003,0 5.792,1.7846 5.792,4.7889 0.016,2.4611 -1.4127,3.9649 -3.4689,4.5597 z m -2.4172,-6.7729 h -3.72 v 4.7481 h 3.72 c 1.8521,0 2.9666,-0.9088 2.9666,-2.3764 0,-1.5445 -1.1145,-2.3717 -2.9666,-2.3717 z"
       id="path1-7"
       style="stroke-width:1.56962" /></g></svg>
